<svg xmlns="http://www.w3.org/2000/svg" version="1.1" xmlns:xlink="http://www.w3.org/1999/xlink" xmlns:svgjs="http://svgjs.dev/svgjs" width="100%" height="100%" viewBox="0 0 1000 600"><rect width="1000" height="600" x="0" y="0" fill="#fd5b61"/><g><circle r="166.66666666666666" cx="358.2830454508463" cy="380.5052872684921" fill="#f7c5cc" transform="matrix(0.6523450178901162,0,0,0.6523450178901162,0,51.779269741650154)"/><path d="M273.33965844409397 453.030243863567L256.1293741313049 453.030243863567L256.1293741313049 317.1035334801175L298.60826985986125 317.1035334801175Q312.48010437284506 317.1035334801175 323.27250674290514 320.72978067645766Q334.03612937331167 324.3560278727978 340.16621391950576 332.7309321119645Q346.2675187260464 341.1346160907845 346.2675187260464 355.2366885209963L346.2675187260464 355.2366885209963Q346.2675187260464 370.97920611145724 337.9789537058403 380.62041889537755Q329.69038868563416 390.2328519396444 315.58831625542234 393.7727599170241L315.58831625542234 393.7727599170241L350.210343058575 453.030243863567L330.7264593131599 453.030243863567L297.97511558748437 395.6434429945011L273.33965844409397 395.6434429945011L273.33965844409397 453.030243863567ZM273.33965844409397 330.9753679931014L273.33965844409397 381.54137056428937L296.1332122496608 381.54137056428937Q312.0771880176962 381.54137056428937 320.56721121547673 375.00836966294634Q329.05723441325733 368.4753687616033 329.05723441325733 355.2366885209963L329.05723441325733 355.2366885209963Q329.05723441325733 341.76777036316145 320.56721121547673 336.35717930830464Q312.0771880176962 330.9753679931014 296.1332122496608 330.9753679931014L296.1332122496608 330.9753679931014L273.33965844409397 330.9753679931014ZM416.9217795753728 455.5053014737675L416.9217795753728 455.5053014737675Q409.8707433602669 455.5053014737675 402.33045157105164 452.1092921946552Q394.76138004218285 448.6845031758896 388.1132601822259 442.6695375883094L388.1132601822259 442.6695375883094L387.50888564950253 442.6695375883094L386.04111892717435 453.030243863567L372.37074259176495 453.030243863567L372.37074259176495 305.5052983997597L389.3795687269795 305.5052983997597L389.3795687269795 345.6818149560365L388.94787263217717 363.92816989635133Q395.7974506697086 357.9132043087712 403.97089673130074 353.8840407572821Q412.17312253254636 349.8260974661395 420.4616875527525 349.8260974661395L420.4616875527525 349.8260974661395Q440.147029475742 349.8260974661395 450.2774978337717 363.7267117187769Q460.4367459314549 377.59854623176074 460.4367459314549 401.0252543097044L460.4367459314549 401.0252543097044Q460.4367459314549 418.20675888284 454.33544112491427 430.4381482355747Q448.20535657872017 442.6695375883094 438.3626856172254 449.0874195310384Q428.5200146557306 455.5053014737675 416.9217795753728 455.5053014737675ZM414.01502587037 441.23055060563473L414.01502587037 441.23055060563473Q426.4478734006791 441.23055060563473 434.6500992019248 430.55326719418866Q442.82354526351685 419.8759837827426 442.82354526351685 401.2267124872788L442.82354526351685 401.2267124872788Q442.82354526351685 384.64958244686665 436.72224045697635 374.403995130223Q430.59215591078214 364.12962807392586 416.31740504264945 364.12962807392586L416.31740504264945 364.12962807392586Q409.8707433602669 364.12962807392586 403.2514032399634 367.66953605130544Q396.63206311965996 371.18066428903165 389.3795687269795 377.80000440933514L389.3795687269795 377.80000440933514L389.3795687269795 430.6396064131491Q395.998908847283 436.45311382315487 402.53190974862605 438.84183221439474Q409.0649106499691 441.23055060563473 414.01502587037 441.23055060563473Z " fill="#cc313d" transform="matrix(0.6523450178901162,0,0,0.6523450178901162,0,51.779269741650154)"/><path d="M625.9301188411767 452.9674225553901L608.2830606533493 452.9674225553901L608.2830606533493 313.5910750284516L651.8400136386894 313.5910750284516Q666.0638966596473 313.5910750284516 677.1301956904756 317.3093515028099Q688.166984590555 321.0276279771682 694.4526424400655 329.61507602509096Q700.708790158827 338.23203420376257 700.708790158827 352.6919982707115L700.708790158827 352.6919982707115Q700.708790158827 368.83403979034637 692.2098725031509 378.7199335912197Q683.7109548474748 388.57631726134406 669.2509907805259 392.2060633434557L669.2509907805259 392.2060633434557L704.7516780714229 452.9674225553901L684.7733195544342 452.9674225553901L651.1907907622142 394.1242218421326L625.9301188411767 394.1242218421326L625.9301188411767 452.9674225553901ZM625.9301188411767 327.81495804940954L625.9301188411767 379.66425777518367L649.3021423942861 379.66425777518367Q665.6507548291631 379.66425777518367 674.3562434000813 372.9654580951889Q683.0617319709995 366.2666584151942 683.0617319709995 352.6919982707115L683.0617319709995 352.6919982707115Q683.0617319709995 338.88125708023784 674.3562434000813 333.3333524994493Q665.6507548291631 327.81495804940954 649.3021423942861 327.81495804940954L649.3021423942861 327.81495804940954L625.9301188411767 327.81495804940954ZM744.9149660206424 452.9674225553901L727.474478748057 452.9674225553901L727.474478748057 349.71147506507515L744.9149660206424 349.71147506507515L744.9149660206424 452.9674225553901ZM736.4160483649663 328.4641809258848L736.4160483649663 328.4641809258848Q731.3107957454108 328.4641809258848 728.0056611015368 325.3656171972529Q724.7300365884116 322.29656359936985 724.7300365884116 316.9847400645723L724.7300365884116 316.9847400645723Q724.7300365884116 311.8794874450169 728.0056611015368 308.69239332413827Q731.3107957454108 305.5052992032597 736.4160483649663 305.5052992032597L736.4160483649663 305.5052992032597Q741.4917908537728 305.5052992032597 744.796925497647 308.69239332413827Q748.102060141521 311.8794874450169 748.102060141521 316.9847400645723L748.102060141521 316.9847400645723Q748.102060141521 322.29656359936985 744.796925497647 325.3656171972529Q741.4917908537728 328.4641809258848 736.4160483649663 328.4641809258848ZM812.257084389576 455.5052937997934L812.257084389576 455.5052937997934Q795.6723909087082 455.5052937997934 789.2096722747044 445.9440114371578Q782.7174435099519 436.38272907452216 782.7174435099519 421.09648134660466L782.7174435099519 421.09648134660466L782.7174435099519 363.9353580860331L767.4311957820344 363.9353580860331L767.4311957820344 350.7738397720346L783.5732373016692 349.71147506507515L785.6979667155882 320.82105706192607L800.3645016977792 320.82105706192607L800.3645016977792 349.71147506507515L828.1925549939688 349.71147506507515L828.1925549939688 363.9353580860331L800.3645016977792 363.9353580860331L800.3645016977792 421.30305226184686Q800.3645016977792 430.8643346244824 803.8762072568954 436.08762776703344Q807.3584026852627 441.28141077883544 816.299972302172 441.28141077883544L816.299972302172 441.28141077883544Q819.0444144618175 441.28141077883544 822.2315085826959 440.33708659487144Q825.4186027035745 439.3632522801585 827.9859840787267 438.50745848844116L827.9859840787267 438.50745848844116L831.3796491148473 451.69848693318846Q827.1301902870093 453.1739934706323 822.1429781904494 454.3543987005873Q817.1557660938894 455.5052937997934 812.257084389576 455.5052937997934ZM875.3497439306717 455.5052937997934L875.3497439306717 455.5052937997934Q862.3947965319154 455.5052937997934 853.8073484839927 447.7736395435881Q845.190390305321 440.0124751566338 845.190390305321 426.20173396616013L845.190390305321 426.20173396616013Q845.190390305321 409.2038986548079 860.3881076409918 400.1737986456521Q875.5858249766627 391.14369863649614 908.5191308924077 387.5139525543845L908.5191308924077 387.5139525543845Q908.5191308924077 380.9331933973853 906.6895027859773 375.0016571168613Q904.889384810296 369.04061070558845 900.3153145442203 365.3223342312302Q895.7707544088935 361.6040577568719 887.2718367532174 361.6040577568719L887.2718367532174 361.6040577568719Q878.3302671363081 361.6040577568719 870.4805723571072 364.99772279299253Q862.6013674471575 368.3913878291133 856.4632602513914 372.6408466569513L856.4632602513914 372.6408466569513L849.6464200484012 360.54169304991234Q856.8764020818758 355.87909239159006 867.3820086284754 351.5115930407565Q877.9171253058238 347.14409368992295 890.2228498281049 347.14409368992295L890.2228498281049 347.14409368992295Q909.1388436381341 347.14409368992295 917.6377612938102 358.741575074231Q926.1366789494863 370.3095463277901 926.1366789494863 389.6386819683035L926.1366789494863 389.6386819683035L926.1366789494863 452.9674225553901L911.7062250132863 452.9674225553901L910.2012083450936 440.63218790236016L909.5814955993671 440.63218790236016Q902.3515135658927 446.5932343136331 893.734555387221 451.0492640567132Q885.1471073392984 455.5052937997934 875.3497439306717 455.5052937997934ZM880.4549965502272 441.48798169407763L880.4549965502272 441.48798169407763Q887.8915494989437 441.48798169407763 894.4723086559429 437.8877457427148Q901.0825779436911 434.25799966060316 908.5191308924077 427.67724050360397L908.5191308924077 427.67724050360397L908.5191308924077 398.99339341569697Q882.7862968793884 402.1804875365755 872.4872612480308 408.55467577833264Q862.1882256166732 414.92886402008975 862.1882256166732 424.9327983439585L862.1882256166732 424.9327983439585Q862.1882256166732 433.6382869148767 867.5000491514709 437.56313430447716Q872.8118726862684 441.48798169407763 880.4549965502272 441.48798169407763ZM1047.2462555428708 452.9674225553901L1002.8335087658135 452.9674225553901L1002.8335087658135 313.5910750284516L1044.2657323372346 313.5910750284516Q1058.5191254889414 313.5910750284516 1069.2313029507832 316.9847400645723Q1079.9729905433737 320.378405100693 1086.0225673468933 327.81495804940954Q1092.0721441504127 335.25151099812615 1092.0721441504127 347.58674565115604L1092.0721441504127 347.58674565115604Q1092.0721441504127 358.00382180550906 1086.8783611386107 366.38469893818973Q1081.6845781268084 374.7655760708703 1071.6806438029398 377.95267019174884L1071.6806438029398 377.95267019174884L1071.6806438029398 378.8084639834662Q1084.2224493712117 381.1397643126274 1092.190184673408 389.4321110530614Q1100.1579199756045 397.72445779349533 1100.1579199756045 412.1844218604443L1100.1579199756045 412.1844218604443Q1100.1579199756045 425.75908200492705 1093.4591202956099 434.9072225370783Q1086.760320615615 444.0553630692297 1074.8677379238184 448.5113928123099Q1062.9751552320215 452.9674225553901 1047.2462555428708 452.9674225553901L1047.2462555428708 452.9674225553901ZM1020.4805669536408 327.60838713416746L1020.4805669536408 372.8769277029423L1041.078638216356 372.8769277029423Q1058.9322673194256 372.8769277029423 1066.8114722293753 366.70931037642737Q1074.6611670085763 360.54169304991234 1074.6611670085763 349.91804598031723L1074.6611670085763 349.91804598031723Q1074.6611670085763 337.8188923732783 1066.4868607911376 332.7136397537229Q1058.3125545736991 327.60838713416746 1041.9344320080734 327.60838713416746L1041.9344320080734 327.60838713416746L1020.4805669536408 327.60838713416746ZM1020.4805669536408 386.45158784742495L1020.4805669536408 438.95011044967436L1044.7083842984678 438.95011044967436Q1062.7685843167794 438.95011044967436 1072.7430085098993 432.2513107696796Q1082.7469428337681 425.55251108968486 1082.7469428337681 411.5351989839691L1082.7469428337681 411.5351989839691Q1082.7469428337681 398.5802515852128 1072.8610490328947 392.53067478169334Q1062.9751552320215 386.45158784742495 1044.7083842984678 386.45158784742495L1044.7083842984678 386.45158784742495L1020.4805669536408 386.45158784742495ZM1143.5083020457025 452.9674225553901L1126.067814773117 452.9674225553901L1126.067814773117 349.71147506507515L1140.527778840066 349.71147506507515L1142.0032853775099 364.58458096250826L1142.6525082539852 364.58458096250826Q1150.089061202702 357.1480280137917 1158.3814079431356 352.1608159172318Q1166.6737546835698 347.14409368992295 1177.2974017531649 347.14409368992295L1177.2974017531649 347.14409368992295Q1193.6460141880418 347.14409368992295 1201.200607659754 357.47263945202934Q1208.7256910007172 367.7716750833868 1208.7256910007172 387.5139525543845L1208.7256910007172 387.5139525543845L1208.7256910007172 452.9674225553901L1191.3147138588806 452.9674225553901L1191.3147138588806 389.8747630142945Q1191.3147138588806 375.41479894734556 1186.6226030698094 368.83403979034637Q1181.960002411487 362.2532806333472 1171.7494971723763 362.2532806333472L1171.7494971723763 362.2532806333472Q1163.8998023931754 362.2532806333472 1157.643654674414 366.2666584151942Q1151.3579968249032 370.3095463277901 1143.5083020457025 378.18875123773984L1143.5083020457025 378.18875123773984L1143.5083020457025 452.9674225553901ZM1288.4030440226807 452.9674225553901L1243.9902972456234 452.9674225553901L1243.9902972456234 313.5910750284516L1285.4225208170442 313.5910750284516Q1299.675913968751 313.5910750284516 1310.388091430593 316.9847400645723Q1321.1297790231836 320.378405100693 1327.1793558267032 327.81495804940954Q1333.2289326302225 335.25151099812615 1333.2289326302225 347.58674565115604L1333.2289326302225 347.58674565115604Q1333.2289326302225 358.00382180550906 1328.0351496184203 366.38469893818973Q1322.8413666066183 374.7655760708703 1312.8374322827494 377.95267019174884L1312.8374322827494 377.95267019174884L1312.8374322827494 378.8084639834662Q1325.3792378510216 381.1397643126274 1333.3469731532182 389.4321110530614Q1341.3147084554143 397.72445779349533 1341.3147084554143 412.1844218604443L1341.3147084554143 412.1844218604443Q1341.3147084554143 425.75908200492705 1334.6159087754197 434.9072225370783Q1327.9171090954248 444.0553630692297 1316.0245264036282 448.5113928123099Q1304.1319437118314 452.9674225553901 1288.4030440226807 452.9674225553901L1288.4030440226807 452.9674225553901ZM1261.6373554334507 327.60838713416746L1261.6373554334507 372.8769277029423L1282.2354266961659 372.8769277029423Q1300.0890557992352 372.8769277029423 1307.9682607091852 366.70931037642737Q1315.817955488386 360.54169304991234 1315.817955488386 349.91804598031723L1315.817955488386 349.91804598031723Q1315.817955488386 337.8188923732783 1307.6436492709477 332.7136397537229Q1299.469343053509 327.60838713416746 1283.0912204878832 327.60838713416746L1283.0912204878832 327.60838713416746L1261.6373554334507 327.60838713416746ZM1261.6373554334507 386.45158784742495L1261.6373554334507 438.95011044967436L1285.8651727782776 438.95011044967436Q1303.9253727965893 438.95011044967436 1313.899796989709 432.2513107696796Q1323.9037313135777 425.55251108968486 1323.9037313135777 411.5351989839691L1323.9037313135777 411.5351989839691Q1323.9037313135777 398.5802515852128 1314.0178375127045 392.53067478169334Q1304.1319437118314 386.45158784742495 1285.8651727782776 386.45158784742495L1285.8651727782776 386.45158784742495L1261.6373554334507 386.45158784742495Z " fill="#f7c5cc" transform="matrix(0.6523450178901162,0,0,0.6523450178901162,0,51.779269741650154)"/></g></svg>